# xmcd
#
# Track frame offsets:
#	150
#	5087
#	50343
#	98284
#	123562
#
# Disc length: 2130 seconds
#
# Revision: 1
# Processed by: cddbd v1.5.2PL0 Copyright (c) Steve Scherf et al.
# Submitted via: audiograbber 1.83.01
#
DISCID=34085005
DTITLE=Grateful Dead - 78-05-16 Uptown Theatre, Chicago IL
DYEAR=1900
DGENRE=
TTITLE0=Crowd Noise 2
TTITLE1=Scarlet Begonias
TTITLE2=Fire On The Mountain
TTITLE3=El Paso
TTITLE4=Ship Of Fools
EXTD=
EXTT0=
EXTT1=
EXTT2=
EXTT3=
EXTT4=
PLAYORDER=
